<?xml version="1.0" encoding="UTF-8"?>
<svg id="Layer_1" data-name="Layer 1" xmlns="http://www.w3.org/2000/svg" viewBox="0 0 140 45">
  <defs>
    <style>
      .cls-1 {
        fill: #fff;
      }
    </style>
  </defs>
  <g id="Sonatype_Logo_Favicon" data-name="Sonatype Logo Favicon">
    <g>
      <polygon class="cls-1" points="7.04 30.84 3.13 33.11 17.87 41.67 17.87 37.12 7.04 30.84"/>
      <polygon class="cls-1" points="1.74 13.61 1.74 30.73 5.79 28.37 5.79 15.95 1.74 13.61"/>
      <polygon class="cls-1" points="3.13 11.22 7.31 13.65 17.87 7.52 17.87 2.67 3.13 11.22"/>
      <polygon class="cls-1" points="32.7 15.95 32.7 28.38 36.74 30.73 36.74 13.61 32.7 15.95"/>
      <polygon class="cls-1" points="20.62 37.12 20.62 41.67 35.36 33.11 31.45 30.85 20.62 37.12"/>
      <polygon class="cls-1" points="20.62 2.67 20.62 7.52 31.17 13.64 35.36 11.22 20.62 2.67"/>
    </g>
  </g>
  <g>
    <path class="cls-1" d="m47.22,14.34l1.1-1.72c.78.8,2.32,1.54,3.75,1.54s2.21-.6,2.21-1.47c0-2.18-6.71-.62-6.71-4.9,0-1.82,1.56-3.36,4.37-3.36,1.89,0,3.31.67,4.3,1.54l-1.01,1.7c-.67-.74-1.89-1.33-3.29-1.33-1.26,0-2.05.6-2.05,1.38,0,1.96,6.71.48,6.71,4.9,0,1.98-1.63,3.47-4.62,3.47-1.91,0-3.61-.62-4.76-1.75Z"/>
    <path class="cls-1" d="m57.43,10.24c0-3.2,2.16-5.82,5.7-5.82s5.7,2.62,5.7,5.82-2.16,5.84-5.7,5.84-5.7-2.67-5.7-5.84Zm8.9,0c0-1.96-1.13-3.68-3.2-3.68s-3.2,1.72-3.2,3.68,1.15,3.7,3.2,3.7,3.2-1.72,3.2-3.7Z"/>
    <path class="cls-1" d="m78.13,15.81v-6.94c0-1.75-.9-2.3-2.25-2.3-1.22,0-2.28.74-2.85,1.47v7.77h-2.42V4.7h2.42v1.49c.74-.87,2.18-1.77,3.93-1.77,2.39,0,3.59,1.29,3.59,3.56v7.82h-2.41Z"/>
    <path class="cls-1" d="m89.91,15.81v-1.22c-.83.97-2.14,1.5-3.61,1.5-1.79,0-3.84-1.24-3.84-3.68,0-2.58,2.02-3.63,3.84-3.63,1.52,0,2.78.48,3.61,1.43v-1.66c0-1.29-1.08-2.07-2.6-2.07-1.24,0-2.35.46-3.29,1.43l-1.01-1.68c1.29-1.24,2.9-1.79,4.67-1.79,2.48,0,4.64,1.04,4.64,4v7.38h-2.41Zm0-2.53v-1.7c-.58-.76-1.61-1.15-2.64-1.15-1.36,0-2.39.8-2.39,2s1.04,2,2.39,2c1.04,0,2.07-.39,2.64-1.15Z"/>
    <path class="cls-1" d="m95.73,13.21v-6.42h-1.84v-2.09h1.84V1.67h2.42v3.04h2.25v2.09h-2.25v5.82c0,.76.37,1.33,1.06,1.33.46,0,.87-.21,1.06-.41l.58,1.84c-.44.39-1.15.71-2.25.71-1.89,0-2.85-1.01-2.85-2.88Z"/>
    <path class="cls-1" d="m102.79,17.99c.25.12.64.18.92.18.78,0,1.29-.23,1.61-.97l.55-1.26-4.58-11.24h2.6l3.24,8.32,3.24-8.32h2.58l-5.36,13.11c-.76,1.88-2.07,2.48-3.79,2.51-.35,0-1.04-.07-1.36-.16l.34-2.16Z"/>
    <path class="cls-1" d="m116.61,14.27v5.77h-2.42V4.7h2.42v1.52c.83-1.1,2.12-1.79,3.56-1.79,2.88,0,4.92,2.16,4.92,5.82s-2.05,5.84-4.92,5.84c-1.4,0-2.64-.64-3.56-1.82Zm6-4.02c0-2.16-1.24-3.68-3.15-3.68-1.13,0-2.3.64-2.85,1.47v4.39c.53.83,1.72,1.52,2.85,1.52,1.91,0,3.15-1.54,3.15-3.7Z"/>
    <path class="cls-1" d="m126.41,10.24c0-3.22,2.35-5.82,5.63-5.82s5.45,2.53,5.45,6.03v.6h-8.55c.18,1.66,1.43,3.06,3.52,3.06,1.1,0,2.37-.44,3.17-1.24l1.1,1.59c-1.13,1.06-2.76,1.63-4.51,1.63-3.36,0-5.82-2.32-5.82-5.84Zm5.61-3.84c-2.05,0-3.01,1.59-3.1,2.92h6.25c-.07-1.31-.97-2.92-3.15-2.92Z"/>
    <path class="cls-1" d="m50.97,38.38v5.66h-2.92v-15.34h2.92v1.4c.85-1.08,2.07-1.68,3.43-1.68,2.85,0,4.92,2.12,4.92,5.82s-2.07,5.84-4.92,5.84c-1.31,0-2.51-.55-3.43-1.7Zm5.33-4.14c0-1.91-1.15-3.22-2.83-3.22-.94,0-2,.53-2.51,1.26v3.91c.48.71,1.56,1.29,2.51,1.29,1.68,0,2.83-1.31,2.83-3.24Z"/>
    <path class="cls-1" d="m61.46,39.81v-15.34h2.92v15.34h-2.92Z"/>
    <path class="cls-1" d="m73.72,39.81v-1.17c-.76.92-2.07,1.45-3.52,1.45-1.77,0-3.84-1.2-3.84-3.68,0-2.62,2.07-3.59,3.84-3.59,1.5,0,2.78.48,3.52,1.36v-1.4c0-1.13-.97-1.86-2.44-1.86-1.17,0-2.28.46-3.2,1.31l-1.15-2.05c1.36-1.22,3.1-1.75,4.85-1.75,2.55,0,4.88,1.01,4.88,4.21v7.17h-2.94Zm0-2.67v-1.38c-.48-.64-1.4-.99-2.35-.99-1.15,0-2.09.62-2.09,1.68s.94,1.66,2.09,1.66c.94,0,1.86-.32,2.35-.97Z"/>
    <path class="cls-1" d="m79.91,37.03v-5.77h-1.84v-2.55h1.84v-3.04h2.92v3.04h2.25v2.55h-2.25v4.99c0,.71.37,1.24,1.01,1.24.44,0,.85-.16,1.01-.34l.62,2.23c-.44.39-1.22.71-2.44.71-2.05,0-3.13-1.06-3.13-3.06Z"/>
    <path class="cls-1" d="m88.16,39.81v-8.55h-1.84v-2.55h1.84v-.46c0-2.51,1.5-4,3.73-4,1.08,0,2.23.3,2.9,1.06l-1.1,1.77c-.3-.28-.69-.44-1.22-.44-.83,0-1.38.53-1.38,1.61v.46h2.25v2.55h-2.25v8.55h-2.92Z"/>
    <path class="cls-1" d="m94.07,34.24c0-3.15,2.21-5.82,5.86-5.82s5.89,2.67,5.89,5.82-2.21,5.84-5.89,5.84-5.86-2.69-5.86-5.84Zm8.71,0c0-1.72-1.01-3.22-2.85-3.22s-2.83,1.5-2.83,3.22,1.01,3.24,2.83,3.24,2.85-1.5,2.85-3.24Z"/>
    <path class="cls-1" d="m107.44,39.81v-11.11h2.92v1.49c.8-.97,2.16-1.77,3.54-1.77v2.85c-.21-.05-.46-.07-.8-.07-.97,0-2.25.55-2.74,1.27v7.33h-2.92Z"/>
    <path class="cls-1" d="m129.26,39.81v-7.01c0-1.03-.46-1.77-1.66-1.77-1.04,0-1.89.69-2.3,1.29v7.5h-2.94v-7.01c0-1.03-.46-1.77-1.66-1.77-1.01,0-1.86.69-2.3,1.29v7.5h-2.92v-11.11h2.92v1.43c.48-.64,1.93-1.7,3.63-1.7s2.69.76,3.08,2c.64-.99,2.12-2,3.82-2,2.05,0,3.27,1.08,3.27,3.36v8.03h-2.94Z"/>
  </g>
</svg>